<svg width="1440" height="2048" viewBox="0 0 1440 2048" fill="none" xmlns="http://www.w3.org/2000/svg">
<g clip-path="url(#clip0_81_76)">
<rect width="1440" height="2048" fill="white"/>
<path d="M1619.58 529.365C1499.67 636.246 1270.37 785.879 1312.45 529.365C1354.53 272.852 1169.35 290.853 1071.5 331.917C928.965 359.481 617.582 212 851.082 -23.5001C1063.11 -237.347 1057.93 -111.919 1071.5 -111.919C1085.07 -111.919 1619.58 -111.919 1619.58 -111.919V529.365Z" fill="#EEC374"/>
<path d="M-53 1401.53C64.7058 1291.71 289.791 1137.96 248.482 1401.53C207.174 1665.1 388.952 1646.6 485.005 1604.41C624.919 1576.08 930.577 1727.62 701.37 1969.59C493.238 2189.32 498.33 2060.44 485.005 2060.44C471.679 2060.44 -53 2060.44 -53 2060.44V1401.53Z" fill="#F5DFBA"/>
<circle cx="831.5" cy="480.5" r="87.5" fill="#F5DFBA"/>
<circle cx="1355.5" cy="1061.5" r="45.5" fill="#886547"/>
<path d="M0.5 855C12.7786 855 24.937 857.418 36.2809 862.117C47.6248 866.816 57.9322 873.703 66.6145 882.386C75.2968 891.068 82.1839 901.375 86.8827 912.719C91.5816 924.063 94 936.221 94 948.5C94 960.779 91.5816 972.937 86.8827 984.281C82.1839 995.625 75.2968 1005.93 66.6145 1014.61C57.9322 1023.3 47.6248 1030.18 36.2809 1034.88C24.937 1039.58 12.7786 1042 0.499992 1042V1028.37C10.9889 1028.37 21.375 1026.31 31.0655 1022.29C40.7559 1018.28 49.5609 1012.39 56.9777 1004.98C64.3944 997.561 70.2777 988.756 74.2916 979.065C78.3055 969.375 80.3715 958.989 80.3715 948.5C80.3715 938.011 78.3055 927.625 74.2916 917.935C70.2777 908.244 64.3944 899.439 56.9777 892.022C49.5609 884.606 40.7559 878.722 31.0655 874.708C21.375 870.694 10.9889 868.629 0.5 868.629V855Z" fill="#CA965D"/>
<path d="M1.05997 880.755C9.88292 880.755 18.6195 882.492 26.7708 885.869C34.9221 889.245 42.3286 894.194 48.5674 900.433C54.8062 906.671 59.755 914.078 63.1314 922.229C66.5078 930.381 68.2456 939.117 68.2456 947.94C68.2456 956.763 66.5078 965.5 63.1314 973.651C59.755 981.802 54.8062 989.209 48.5674 995.448C42.3286 1001.69 34.9221 1006.64 26.7708 1010.01C18.6195 1013.39 9.88291 1015.13 1.05997 1015.13L1.05997 947.94V880.755Z" fill="#CA965D"/>
</g>
<defs>
<clipPath id="clip0_81_76">
<rect width="1440" height="2048" fill="white"/>
</clipPath>
</defs>
</svg>
