<svg width="133" height="133" viewBox="0 0 133 133" fill="none" xmlns="http://www.w3.org/2000/svg">
<g filter="url(#filter0_d_43_812)">
<path d="M36.0208 55.4166C34.785 55.4166 33.5991 55.605 32.4187 55.7768C32.8011 54.4912 33.1946 53.1833 33.8263 52.0085C34.4581 50.3017 35.4445 48.8221 36.4254 47.3313C37.2455 45.7187 38.6919 44.627 39.7559 43.2471C40.8698 41.9061 42.3882 41.0138 43.5907 39.9C44.7711 38.7362 46.3172 38.1543 47.5475 37.3342C48.8332 36.5971 49.9526 35.7825 51.1496 35.3946L54.1365 34.1643L56.7633 33.0726L54.0756 22.3329L50.7672 23.1309C49.7087 23.3969 48.4175 23.7072 46.949 24.0785C45.4472 24.3556 43.8457 25.1148 42.0612 25.8075C40.299 26.5944 38.2597 27.1264 36.3644 28.3899C34.4581 29.598 32.258 30.6066 30.3185 32.2248C28.4398 33.8928 26.1733 35.3392 24.4997 37.4616C22.671 39.4456 20.8644 41.5292 19.4623 43.9011C17.8386 46.1621 16.7358 48.6447 15.5721 51.0997C14.5192 53.5546 13.6713 56.065 12.9786 58.5033C11.6652 63.3911 11.0778 68.035 10.8506 72.0084C10.6622 75.9873 10.773 79.2957 11.0057 81.6897C11.0889 82.8202 11.244 83.9174 11.3549 84.6766L11.4934 85.6076L11.6375 85.5744C12.6231 90.1786 14.8921 94.4096 18.182 97.7781C21.4719 101.147 25.6482 103.515 30.2278 104.609C34.8074 105.703 39.6032 105.478 44.0604 103.961C48.5176 102.443 52.4541 99.6945 55.4145 96.0331C58.3749 92.3716 60.2382 87.9469 60.7888 83.2707C61.3395 78.5945 60.5551 73.858 58.5263 69.609C56.4974 65.36 53.3072 61.7722 49.3244 59.2606C45.3417 56.749 40.7293 55.4163 36.0208 55.4166ZM96.9792 55.4166C95.7434 55.4166 94.5574 55.605 93.3771 55.7768C93.7595 54.4912 94.1529 53.1833 94.7847 52.0085C95.4164 50.3017 96.4028 48.8221 97.3837 47.3313C98.2039 45.7187 99.6502 44.627 100.714 43.2471C101.828 41.9061 103.347 41.0138 104.549 39.9C105.729 38.7362 107.276 38.1543 108.506 37.3342C109.791 36.5971 110.911 35.7825 112.108 35.3946L115.095 34.1643L117.722 33.0726L115.034 22.3329L111.726 23.1309C110.667 23.3969 109.376 23.7072 107.907 24.0785C106.406 24.3556 104.804 25.1148 103.02 25.8075C101.263 26.6 99.218 27.1264 97.3227 28.3955C95.4164 29.6036 93.2164 30.6121 91.2768 32.2303C89.3982 33.8983 87.1316 35.3447 85.458 37.4616C83.6293 39.4456 81.8227 41.5292 80.4207 43.9011C78.797 46.1621 77.6942 48.6447 76.5304 51.0997C75.4775 53.5546 74.6296 56.065 73.9369 58.5033C72.6235 63.3911 72.0361 68.035 71.8089 72.0084C71.6205 75.9873 71.7313 79.2957 71.9641 81.6897C72.0472 82.8202 72.2024 83.9174 72.3132 84.6766L72.4517 85.6076L72.5958 85.5744C73.5815 90.1786 75.8505 94.4096 79.1403 97.7781C82.4302 101.147 86.6065 103.515 91.1861 104.609C95.7657 105.703 100.562 105.478 105.019 103.961C109.476 102.443 113.412 99.6945 116.373 96.0331C119.333 92.3716 121.196 87.9469 121.747 83.2707C122.298 78.5945 121.513 73.858 119.485 69.609C117.456 65.36 114.265 61.7722 110.283 59.2606C106.3 56.749 101.688 55.4163 96.9792 55.4166Z" fill="#404040" fill-opacity="0.2"/>
</g>
<defs>
<filter id="filter0_d_43_812" x="-4" y="0" width="141" height="141" filterUnits="userSpaceOnUse" color-interpolation-filters="sRGB">
<feFlood flood-opacity="0" result="BackgroundImageFix"/>
<feColorMatrix in="SourceAlpha" type="matrix" values="0 0 0 0 0 0 0 0 0 0 0 0 0 0 0 0 0 0 127 0" result="hardAlpha"/>
<feOffset dy="4"/>
<feGaussianBlur stdDeviation="2"/>
<feComposite in2="hardAlpha" operator="out"/>
<feColorMatrix type="matrix" values="0 0 0 0 0 0 0 0 0 0 0 0 0 0 0 0 0 0 0.25 0"/>
<feBlend mode="normal" in2="BackgroundImageFix" result="effect1_dropShadow_43_812"/>
<feBlend mode="normal" in="SourceGraphic" in2="effect1_dropShadow_43_812" result="shape"/>
</filter>
</defs>
</svg>
